<?xml version="1.0" encoding="UTF-8" standalone="no"?>
<!-- Created with Inkscape (http://www.inkscape.org/) -->

<svg
   xmlns:dc="http://purl.org/dc/elements/1.1/"
   xmlns:cc="http://creativecommons.org/ns#"
   xmlns:rdf="http://www.w3.org/1999/02/22-rdf-syntax-ns#"
   xmlns:svg="http://www.w3.org/2000/svg"
   xmlns="http://www.w3.org/2000/svg"
   xmlns:xlink="http://www.w3.org/1999/xlink"
   xmlns:sodipodi="http://sodipodi.sourceforge.net/DTD/sodipodi-0.dtd"
   xmlns:inkscape="http://www.inkscape.org/namespaces/inkscape"
   version="1.1"
   width="141.3625"
   height="141.36501"
   id="svg2"
   xml:space="preserve"
   sodipodi:docname="Logo_European_Pirate_Party.svg"
   inkscape:version="0.92.3 (2405546, 2018-03-11)"><sodipodi:namedview
     pagecolor="#ffffff"
     bordercolor="#666666"
     borderopacity="1"
     objecttolerance="10"
     gridtolerance="10"
     guidetolerance="10"
     inkscape:pageopacity="0"
     inkscape:pageshadow="2"
     inkscape:window-width="1861"
     inkscape:window-height="1027"
     id="namedview1003"
     showgrid="false"
     fit-margin-top="0"
     fit-margin-left="0"
     fit-margin-right="0"
     fit-margin-bottom="0"
     inkscape:zoom="3.142684"
     inkscape:cx="184.92037"
     inkscape:cy="96.138445"
     inkscape:window-x="59"
     inkscape:window-y="27"
     inkscape:window-maximized="1"
     inkscape:current-layer="svg2" /><metadata
     id="metadata8"><rdf:RDF><cc:Work
         rdf:about=""><dc:format>image/svg+xml</dc:format><dc:type
           rdf:resource="http://purl.org/dc/dcmitype/StillImage" /><dc:title></dc:title></cc:Work></rdf:RDF></metadata><defs
     id="defs6"><clipPath
       id="clipPath18"><path
         d="M 0,0 H 841.89 V 595.276 H 0 Z"
         id="path20"
         inkscape:connector-curvature="0" /></clipPath><clipPath
       id="clipPath50"><path
         d="M 0,0 H 841.89 V 595.276 H 0 Z"
         id="path52"
         inkscape:connector-curvature="0" /></clipPath><clipPath
       id="clipPath122"><path
         d="M 0,0 H 841.89 V 595.276 H 0 Z"
         id="path124"
         inkscape:connector-curvature="0" /></clipPath><rect
       height="382.593"
       width="367.289"
       y="162.617"
       x="171.571"
       id="SVGID_1_" /></defs><g
     id="g14"
     transform="matrix(1.25,0,0,-1.25,-341.26087,442.72975)"><g
       id="g16"
       clip-path="url(#clipPath18)"><g
         id="g22"
         transform="translate(386.0987,297.6378)"><path
           inkscape:connector-curvature="0"
           style="fill:#ffffff;fill-opacity:1;fill-rule:nonzero;stroke:none"
           id="path24"
           d="m 0,0 c 0,-31.228 -25.314,-56.546 -56.547,-56.546 -31.227,0 -56.543,25.318 -56.543,56.546 0,31.229 25.316,56.546 56.543,56.546 C -25.314,56.546 0,31.229 0,0" /></g><g
         id="g26"
         transform="translate(383.1153,297.6378)"><path
           inkscape:connector-curvature="0"
           style="fill:#254aa5;fill-opacity:1;fill-rule:nonzero;stroke:none"
           id="path28"
           d="m 0,0 c 0,-29.582 -23.981,-53.563 -53.564,-53.563 -29.58,0 -53.562,23.981 -53.562,53.563 0,29.582 23.982,53.562 53.562,53.562 C -23.981,53.562 0,29.582 0,0" /></g></g></g><g
     id="g1310"
     transform="matrix(0.25380384,0,0,0.25380384,-19.473721,-19.141976)"
     style="fill:#ffffff">
	<defs
   id="defs1303">
		<rect
   height="382.59299"
   width="367.289"
   y="162.617"
   x="171.571"
   id="rect1320" />
	</defs>
	<clipPath
   id="SVGID_2_">
		<use
   id="use1305"
   overflow="visible"
   xlink:href="#SVGID_1_"
   style="overflow:visible"
   x="0"
   y="0"
   width="100%"
   height="100%" />
	</clipPath>
	<path
   id="path1308"
   d="m 348.916,162.617 c 7.978,4.427 35.122,22.431 35.122,54.923 0,28.745 -46.37,114.56 -28.43,136.857 L 470.717,210.929 c 0,0 28.59,34.823 11.438,64.277 -17.823,30.609 -61.881,66.524 -79.531,93.209 -10.911,16.495 -5.606,25.338 -5.606,25.338 l 139.495,-76.4 c 0,0 11.202,33.237 -15.347,57.141 -28.018,25.229 -93.991,35.249 -93.991,61.543 h 95.809 c 0,0 -9.792,29.033 -28.305,33.118 -16.329,3.605 -51.27,-5.934 -67.737,8.899 -17.384,15.66 -36.938,67.155 -95.279,67.155 -39.252,0 -69.671,-28.289 -88.566,-65.463 -21.834,-42.956 -46.3,-63.631 -71.526,-68.897 0,0 13.714,-32.469 49.922,-32.469 49.774,0 71.065,81.557 108.623,81.557 10.825,0 22.317,-5.632 22.317,-21.582 0,-17.314 -24.958,-31.656 -31.905,-36.492 -16.543,-11.519 -29.733,-29.818 -21.233,-60.532 l 49.621,-178.714"
   clip-path="url(#SVGID_2_)"
   inkscape:connector-curvature="0"
   style="fill:#ffffff" />
</g></svg>