<?xml version="1.0" encoding="UTF-8" standalone="no"?>
<!-- Created with Inkscape (http://www.inkscape.org/) -->

<svg
   xmlns:dc="http://purl.org/dc/elements/1.1/"
   xmlns:cc="http://creativecommons.org/ns#"
   xmlns:rdf="http://www.w3.org/1999/02/22-rdf-syntax-ns#"
   xmlns:svg="http://www.w3.org/2000/svg"
   xmlns="http://www.w3.org/2000/svg"
   xmlns:sodipodi="http://sodipodi.sourceforge.net/DTD/sodipodi-0.dtd"
   xmlns:inkscape="http://www.inkscape.org/namespaces/inkscape"
   version="1.1"
   width="141.3625"
   height="141.36501"
   id="svg2"
   xml:space="preserve"
   sodipodi:docname="Logo_European_Pirate_Party.svg"
   inkscape:version="0.92.3 (2405546, 2018-03-11)"><sodipodi:namedview
     pagecolor="#ffffff"
     bordercolor="#666666"
     borderopacity="1"
     objecttolerance="10"
     gridtolerance="10"
     guidetolerance="10"
     inkscape:pageopacity="0"
     inkscape:pageshadow="2"
     inkscape:window-width="1861"
     inkscape:window-height="1027"
     id="namedview1003"
     showgrid="false"
     fit-margin-top="0"
     fit-margin-left="0"
     fit-margin-right="0"
     fit-margin-bottom="0"
     inkscape:zoom="3.142684"
     inkscape:cx="184.92037"
     inkscape:cy="96.138445"
     inkscape:window-x="59"
     inkscape:window-y="27"
     inkscape:window-maximized="1"
     inkscape:current-layer="svg2" /><metadata
     id="metadata8"><rdf:RDF><cc:Work
         rdf:about=""><dc:format>image/svg+xml</dc:format><dc:type
           rdf:resource="http://purl.org/dc/dcmitype/StillImage" /><dc:title></dc:title></cc:Work></rdf:RDF></metadata><defs
     id="defs6"><clipPath
       id="clipPath18"><path
         d="M 0,0 H 841.89 V 595.276 H 0 Z"
         id="path20"
         inkscape:connector-curvature="0" /></clipPath><clipPath
       id="clipPath50"><path
         d="M 0,0 H 841.89 V 595.276 H 0 Z"
         id="path52"
         inkscape:connector-curvature="0" /></clipPath><clipPath
       id="clipPath122"><path
         d="M 0,0 H 841.89 V 595.276 H 0 Z"
         id="path124"
         inkscape:connector-curvature="0" /></clipPath></defs><g
     id="g1169"><g
       transform="translate(-20.000005,-20)"
       id="g1083"><g
         id="g14"
         transform="matrix(1.25,0,0,-1.25,-321.26087,462.72975)"><g
           id="g16"
           clip-path="url(#clipPath18)"><g
             id="g22"
             transform="translate(386.0987,297.6378)"><path
               inkscape:connector-curvature="0"
               style="fill:#ffffff;fill-opacity:1;fill-rule:nonzero;stroke:none"
               id="path24"
               d="m 0,0 c 0,-31.228 -25.314,-56.546 -56.547,-56.546 -31.227,0 -56.543,25.318 -56.543,56.546 0,31.229 25.316,56.546 56.543,56.546 C -25.314,56.546 0,31.229 0,0" /></g><g
             id="g26"
             transform="translate(383.1153,297.6378)"><path
               inkscape:connector-curvature="0"
               style="fill:#254aa5;fill-opacity:1;fill-rule:nonzero;stroke:none"
               id="path28"
               d="m 0,0 c 0,-29.582 -23.981,-53.563 -53.564,-53.563 -29.58,0 -53.562,23.981 -53.562,53.563 0,29.582 23.982,53.562 53.562,53.562 C -23.981,53.562 0,29.582 0,0" /></g></g></g><g
         id="g30"
         transform="matrix(1.25,0,0,-1.25,95.37988,114.59)"><path
           inkscape:connector-curvature="0"
           style="fill:#fff200;fill-opacity:1;fill-rule:nonzero;stroke:none"
           id="path32"
           d="M 0,0 -30.347,-21.691 -19.095,13.873 -49.1,36.029 -11.802,36.319 0,71.703 11.802,36.319 49.1,36.029 19.095,13.873 30.347,-21.691 Z" /></g><g
         id="g34"
         transform="matrix(1.25,0,0,-1.25,37.507505,109.74363)"><path
           inkscape:connector-curvature="0"
           style="fill:#fff200;fill-opacity:1;fill-rule:nonzero;stroke:none"
           id="path36"
           d="M 0,0 -8.498,-6.073 -5.347,3.885 -13.75,10.09 -3.305,10.171 0,20.078 3.306,10.171 13.749,10.09 5.347,3.885 8.498,-6.073 Z" /></g><g
         id="g38"
         transform="matrix(1.25,0,0,-1.25,139.94038,119.05288)"><path
           inkscape:connector-curvature="0"
           style="fill:#fff200;fill-opacity:1;fill-rule:nonzero;stroke:none"
           id="path40"
           d="M 0,0 -5.946,-4.251 -3.742,2.72 -9.624,7.062 -2.313,7.119 0,14.053 2.313,7.119 9.623,7.062 3.742,2.72 5.948,-4.251 Z" /></g><g
         id="g42"
         transform="matrix(1.25,0,0,-1.25,121.45288,48.136125)"><path
           inkscape:connector-curvature="0"
           style="fill:#fff200;fill-opacity:1;fill-rule:nonzero;stroke:none"
           id="path44"
           d="M 0,0 -4.593,-3.284 -2.89,2.101 -7.433,5.454 -1.786,5.499 0,10.855 1.786,5.499 7.434,5.454 2.891,2.101 4.594,-3.284 Z" /></g></g><g
       transform="matrix(1.25,0,0,-1.25,70.642255,19.7425)"
       id="g54"><path
         d="m 0,0 c -22.495,0 -40.722,-18.286 -40.722,-40.782 0,-22.494 18.227,-40.781 40.722,-40.781 22.493,0 40.784,18.287 40.784,40.781 C 40.784,-18.288 22.493,0 0,0"
         id="path56"
         style="fill:#ffffff;fill-opacity:1;fill-rule:nonzero;stroke:none"
         inkscape:connector-curvature="0" /></g><g
       transform="matrix(1.25,0,0,-1.25,70.642255,23.5695)"
       id="g58"><path
         d="m 0,0 c -20.804,0 -37.657,-16.912 -37.657,-37.721 0,-20.804 16.853,-37.716 37.657,-37.716 20.804,0 37.721,16.912 37.721,37.716 C 37.721,-16.916 20.804,0 0,0"
         id="path60"
         style="fill:#ffffff;fill-opacity:1;fill-rule:nonzero;stroke:none"
         inkscape:connector-curvature="0" /></g><g
       transform="matrix(1.25,0,0,-1.25,72.90188,44.226125)"
       id="g62"><path
         d="m 0,0 c 13.817,-0.43 21.852,-6.716 21.852,-15.938 0,-8.429 -5.212,-13.041 -22.365,-16.085 -12.775,-2.269 -16.155,-5.35 -16.155,-10.611 0,-3.224 1.077,-5.692 2.962,-7.903 -2.869,1.803 -5.176,5.523 -5.176,9.734 0,2.587 0.765,5.039 2.498,7.115 v 30.135 c -0.427,0.028 -0.857,0.04 -1.298,0.04 -0.191,0 -0.378,-0.008 -0.559,-0.018 -0.235,-0.016 -0.306,0.256 -0.061,0.359 0.592,0.249 1.233,0.492 1.918,0.723 v 6.334 c 0,0.13 0.102,0.234 0.234,0.234 h 3.434 c 0.129,0 0.236,-0.104 0.236,-0.234 V -1.367 C -8.378,-0.425 -3.685,0.115 0,0 m -12.48,-30.574 c 0.465,0.253 0.964,0.492 1.485,0.717 6.213,2.678 9.287,7.384 9.287,13.177 0,5.746 -4.245,10.75 -10.772,12.5 z"
         id="path64"
         style="fill:#121212;fill-opacity:1;fill-rule:nonzero;stroke:none"
         inkscape:connector-curvature="0" /></g><g
       transform="matrix(1.25,0,0,-1.25,70.642255,23.5695)"
       id="g66"><path
         d="m 0,0 c -20.804,0 -37.657,-16.912 -37.657,-37.721 0,-20.802 16.853,-37.716 37.657,-37.716 20.804,0 37.721,16.914 37.721,37.716 C 37.721,-16.916 20.804,0 0,0 m 0.002,-3.617 c 18.849,0 34.102,-15.256 34.102,-34.104 0,-18.845 -15.253,-34.1 -34.102,-34.1 -18.842,0 -34.043,15.255 -34.043,34.1 0,18.848 15.201,34.104 34.043,34.104"
         id="path68"
         style="fill:#00adef;fill-opacity:1;fill-rule:nonzero;stroke:none"
         inkscape:connector-curvature="0" /></g></g></svg>