<?xml version="1.0" encoding="UTF-8" standalone="no"?>
<svg
   xmlns:dc="http://purl.org/dc/elements/1.1/"
   xmlns:cc="http://creativecommons.org/ns#"
   xmlns:rdf="http://www.w3.org/1999/02/22-rdf-syntax-ns#"
   xmlns:svg="http://www.w3.org/2000/svg"
   xmlns="http://www.w3.org/2000/svg"
   xmlns:sodipodi="http://sodipodi.sourceforge.net/DTD/sodipodi-0.dtd"
   xmlns:inkscape="http://www.inkscape.org/namespaces/inkscape"
   enable-background="new 0 0 56.693 56.693"
   height="49.248001"
   id="Layer_1"
   version="1.1"
   viewBox="0 0 49.249999 49.248"
   width="49.25"
   xml:space="preserve"
   sodipodi:docname="facebook.svg"
   inkscape:version="0.92.3 (2405546, 2018-03-11)"><metadata
     id="metadata2645"><rdf:RDF><cc:Work
         rdf:about=""><dc:format>image/svg+xml</dc:format><dc:type
           rdf:resource="http://purl.org/dc/dcmitype/StillImage" /><dc:title></dc:title></cc:Work></rdf:RDF></metadata><defs
     id="defs2643" /><sodipodi:namedview
     pagecolor="#ffffff"
     bordercolor="#666666"
     borderopacity="1"
     objecttolerance="10"
     gridtolerance="10"
     guidetolerance="10"
     inkscape:pageopacity="0"
     inkscape:pageshadow="2"
     inkscape:window-width="1849"
     inkscape:window-height="1027"
     id="namedview2641"
     showgrid="false"
     fit-margin-top="0"
     fit-margin-left="0"
     fit-margin-right="0"
     fit-margin-bottom="0"
     inkscape:zoom="4.1627714"
     inkscape:cx="24.6245"
     inkscape:cy="26.0585"
     inkscape:window-x="71"
     inkscape:window-y="27"
     inkscape:window-maximized="1"
     inkscape:current-layer="Layer_1" /><path
     d="M 24.625,0 C 11.025,0 0,11.027 0,24.625 c 0,13.6 11.025,24.623 24.625,24.623 13.6,0 24.625,-11.023 24.625,-24.623 C 49.25,11.027 38.224,0 24.625,0 Z m 6.517,24.522 h -4.264 c 0,6.814 0,15.207 0,15.207 h -6.32 c 0,0 0,-8.307 0,-15.207 h -3.006 v -5.369 h 3.006 v -3.479 c 0,-2.49 1.182,-6.377 6.379,-6.377 l 4.68,0.018 v 5.215 c 0,0 -2.846,0 -3.398,0 -0.555,0 -1.34,0.277 -1.34,1.461 v 3.163 h 4.818 z"
     id="path2638"
     inkscape:connector-curvature="0"
     style="fill:#ffffff" /></svg>