<?xml version="1.0" encoding="UTF-8" standalone="no"?>
<svg
   xmlns:dc="http://purl.org/dc/elements/1.1/"
   xmlns:cc="http://creativecommons.org/ns#"
   xmlns:rdf="http://www.w3.org/1999/02/22-rdf-syntax-ns#"
   xmlns:svg="http://www.w3.org/2000/svg"
   xmlns="http://www.w3.org/2000/svg"
   xmlns:sodipodi="http://sodipodi.sourceforge.net/DTD/sodipodi-0.dtd"
   xmlns:inkscape="http://www.inkscape.org/namespaces/inkscape"
   enable-background="new 0 0 56.693 56.693"
   height="49.248001"
   id="Layer_1"
   version="1.1"
   viewBox="0 0 49.248 49.248"
   width="49.248001"
   xml:space="preserve"
   sodipodi:docname="instagram.svg"
   inkscape:version="0.92.3 (2405546, 2018-03-11)"><metadata
     id="metadata1439"><rdf:RDF><cc:Work
         rdf:about=""><dc:format>image/svg+xml</dc:format><dc:type
           rdf:resource="http://purl.org/dc/dcmitype/StillImage" /><dc:title></dc:title></cc:Work></rdf:RDF></metadata><defs
     id="defs1437" /><sodipodi:namedview
     pagecolor="#ffffff"
     bordercolor="#666666"
     borderopacity="1"
     objecttolerance="10"
     gridtolerance="10"
     guidetolerance="10"
     inkscape:pageopacity="0"
     inkscape:pageshadow="2"
     inkscape:window-width="1849"
     inkscape:window-height="1027"
     id="namedview1435"
     showgrid="false"
     inkscape:pagecheckerboard="false"
     fit-margin-top="0"
     fit-margin-left="0"
     fit-margin-right="0"
     fit-margin-bottom="0"
     inkscape:zoom="4.1627714"
     inkscape:cx="24.6235"
     inkscape:cy="26.0595"
     inkscape:window-x="71"
     inkscape:window-y="27"
     inkscape:window-maximized="1"
     inkscape:current-layer="Layer_1" /><g
     id="g1432"
     style="fill:#ffffff"
     transform="translate(-3.723,-5.158)"><polygon
       points="38.512,19.855 37.922,19.857 33.975,19.871 33.99,24.407 38.512,24.392 38.512,20.445 "
       id="polygon1424"
       style="fill:#ffffff" /><path
       d="m 28.225,34.868 c 2.598,0 4.713,-2.113 4.713,-4.711 0,-1.025 -0.334,-1.975 -0.893,-2.748 -0.855,-1.186 -2.248,-1.965 -3.82,-1.965 -1.572,0 -2.963,0.779 -3.82,1.965 -0.559,0.773 -0.891,1.723 -0.891,2.748 0,2.598 2.113,4.711 4.711,4.711 z"
       id="path1426"
       style="fill:#ffffff"
       inkscape:connector-curvature="0" /><path
       d="m 28.348,5.158 c -13.6,0 -24.625,11.023 -24.625,24.623 0,13.6 11.025,24.625 24.625,24.625 13.598,0 24.623,-11.025 24.623,-24.625 0,-13.6 -11.026,-24.623 -24.623,-24.623 z M 41.611,27.409 V 38.37 c 0,2.852 -2.322,5.172 -5.174,5.172 H 20.012 c -2.853,0 -5.173,-2.32 -5.173,-5.172 V 27.409 21.945 c 0,-2.853 2.32,-5.173 5.173,-5.173 h 16.425 c 2.852,0 5.174,2.32 5.174,5.173 z"
       id="path1428"
       style="fill:#ffffff"
       inkscape:connector-curvature="0" /><path
       d="m 35.545,30.157 c 0,4.035 -3.283,7.32 -7.32,7.32 -4.037,0 -7.318,-3.285 -7.318,-7.32 0,-0.973 0.193,-1.898 0.537,-2.748 H 17.448 V 38.37 c 0,1.414 1.15,2.564 2.564,2.564 h 16.425 c 1.414,0 2.564,-1.15 2.564,-2.564 V 27.409 h -3.998 c 0.347,0.85 0.542,1.776 0.542,2.748 z"
       id="path1430"
       style="fill:#ffffff"
       inkscape:connector-curvature="0" /></g></svg>