<?xml version="1.0" encoding="UTF-8" standalone="no"?>
<!-- Created with Inkscape (http://www.inkscape.org/) -->

<svg
   xmlns:dc="http://purl.org/dc/elements/1.1/"
   xmlns:cc="http://creativecommons.org/ns#"
   xmlns:rdf="http://www.w3.org/1999/02/22-rdf-syntax-ns#"
   xmlns:svg="http://www.w3.org/2000/svg"
   xmlns="http://www.w3.org/2000/svg"
   xmlns:sodipodi="http://sodipodi.sourceforge.net/DTD/sodipodi-0.dtd"
   xmlns:inkscape="http://www.inkscape.org/namespaces/inkscape"
   width="185.20834mm"
   height="185.20833mm"
   viewBox="0 0 185.20834 185.20833"
   version="1.1"
   id="svg8"
   inkscape:version="0.92.3 (2405546, 2018-03-11)">
  <defs
     id="defs2" />
  <sodipodi:namedview
     id="base"
     pagecolor="#ffffff"
     bordercolor="#666666"
     borderopacity="1.0"
     inkscape:pageopacity="0.0"
     inkscape:pageshadow="2"
     inkscape:zoom="0.35"
     inkscape:cx="-142.51289"
     inkscape:cy="488.74237"
     inkscape:document-units="mm"
     inkscape:current-layer="layer1"
     showgrid="false"
     fit-margin-top="0"
     fit-margin-left="0"
     fit-margin-right="0"
     fit-margin-bottom="0"
     inkscape:window-width="1920"
     inkscape:window-height="1017"
     inkscape:window-x="-8"
     inkscape:window-y="-8"
     inkscape:window-maximized="1" />
  <metadata
     id="metadata5">
    <rdf:RDF>
      <cc:Work
         rdf:about="">
        <dc:format>image/svg+xml</dc:format>
        <dc:type
           rdf:resource="http://purl.org/dc/dcmitype/StillImage" />
        <dc:title></dc:title>
      </cc:Work>
    </rdf:RDF>
  </metadata>
  <g
     inkscape:label="Capa 1"
     inkscape:groupmode="layer"
     id="layer1"
     transform="translate(-13.138084,-92.938087)">
    <path
       d="m -348.80353,-2.8410407 q 7.80193,0 11.97974,2.76842788 4.17781,2.71809362 4.17781,8.95964142 0,6.2918854 -4.22814,9.1106504 -4.22815,2.768428 -12.08042,2.768428 h -2.46642 v 11.677737 h -7.85227 V -1.9350086 q 2.56709,-0.5033518 5.43619,-0.704692 2.8691,-0.2013401 5.03351,-0.2013401 z m 0.50335,6.6945653 q -0.8557,0 -1.71139,0.050334 -0.80537,0.050334 -1.40939,0.1006715 V 14.071544 h 2.46642 q 4.07714,0 6.14088,-1.107372 2.06374,-1.107373 2.06374,-4.1274749 0,-1.4597183 -0.55369,-2.4160848 -0.50335,-0.9563665 -1.51005,-1.5100526 -0.95637,-0.6040205 -2.36575,-0.8053606 -1.40938,-0.2516745 -3.12077,-0.2516745 z"
       style="font-style:normal;font-variant:normal;font-weight:bold;font-stretch:normal;font-size:medium;line-height:125%;font-family:Ubuntu;-inkscape-font-specification:'Ubuntu, Medium';text-align:start;letter-spacing:0px;word-spacing:0px;writing-mode:lr-tb;text-anchor:start;fill:#000000;fill-opacity:1;stroke:none;stroke-width:0.28222224px;stroke-linecap:butt;stroke-linejoin:miter;stroke-opacity:1"
       id="path18543"
       inkscape:connector-curvature="0" />
    <path
       d="m -319.83413,32.443844 h -7.49992 V 5.9675948 h 7.49992 z m 0.70469,-34.1271753 q 0,2.06373596 -1.35904,3.2717798 -1.30871,1.1577038 -3.12078,1.1577038 -1.81206,0 -3.17111,-1.1577038 -1.30871,-1.20804384 -1.30871,-3.2717798 0,-2.0637416 1.30871,-3.2214482 1.35905,-1.208041 3.17111,-1.208041 1.81207,0 3.12078,1.208041 1.35904,1.1577066 1.35904,3.2214482 z"
       style="font-style:normal;font-variant:normal;font-weight:bold;font-stretch:normal;font-size:medium;line-height:125%;font-family:Ubuntu;-inkscape-font-specification:'Ubuntu, Medium';text-align:start;letter-spacing:0px;word-spacing:0px;writing-mode:lr-tb;text-anchor:start;fill:#000000;fill-opacity:1;stroke:none;stroke-width:0.28222224px;stroke-linecap:butt;stroke-linejoin:miter;stroke-opacity:1"
       id="path18545"
       inkscape:connector-curvature="0" />
    <path
       d="m -296.82785,12.611826 q -1.0067,-0.251678 -2.36575,-0.503349 -1.35905,-0.302015 -2.91943,-0.302015 -0.7047,0 -1.7114,0.151009 -0.95636,0.100669 -1.45972,0.251674 v 20.234699 h -7.49992 V 7.3769788 q 2.0134,-0.704692 4.7315,-1.3087096 2.76842,-0.6543605 6.14088,-0.6543605 0.60402,0 1.45971,0.1006715 0.8557,0.050337 1.7114,0.201343 0.85569,0.1006686 1.71139,0.3020088 0.85569,0.1510058 1.45971,0.4026803 z"
       style="font-style:normal;font-variant:normal;font-weight:bold;font-stretch:normal;font-size:medium;line-height:125%;font-family:Ubuntu;-inkscape-font-specification:'Ubuntu, Medium';text-align:start;letter-spacing:0px;word-spacing:0px;writing-mode:lr-tb;text-anchor:start;fill:#000000;fill-opacity:1;stroke:none;stroke-width:0.28222224px;stroke-linecap:butt;stroke-linejoin:miter;stroke-opacity:1"
       id="path18547"
       inkscape:connector-curvature="0" />
    <path
       d="m -281.92317,27.208997 q 1.10738,0 2.11408,-0.05034 1.0067,-0.05033 1.61071,-0.151003 V 21.31979 q -0.45301,-0.100669 -1.35904,-0.20134 -0.90603,-0.100669 -1.66106,-0.100669 -1.05703,0 -2.0134,0.151003 -0.90603,0.100671 -1.61072,0.453017 -0.70469,0.352346 -1.10738,0.956367 -0.40267,0.60402 -0.40267,1.51005 0,1.76173 1.1577,2.466419 1.20804,0.654357 3.27178,0.654357 z m -0.60402,-21.9460913 q 3.32211,0 5.53686,0.7550263 2.21474,0.7550263 3.52345,2.1644074 1.35905,1.4093812 1.91274,3.4227856 0.55368,2.013402 0.55368,4.479821 v 15.603872 q -1.61072,0.352346 -4.47982,0.805361 -2.8691,0.503352 -6.94624,0.503352 -2.56709,0 -4.68116,-0.453018 -2.06374,-0.453015 -3.57379,-1.459715 -1.51005,-1.057038 -2.31541,-2.718094 -0.80537,-1.661058 -0.80537,-4.07714 0,-2.315414 0.90603,-3.926138 0.95637,-1.610721 2.51676,-2.567088 1.56039,-0.956366 3.57379,-1.359046 2.0134,-0.453015 4.17781,-0.453015 1.45972,0 2.56709,0.151003 1.1577,0.100672 1.86239,0.302012 V 15.7326 q 0,-1.912733 -1.1577,-3.070437 -1.15771,-1.157709 -4.02681,-1.157709 -1.91273,0 -3.77513,0.302008 -1.86239,0.251678 -3.22144,0.755029 l -0.95637,-6.04021 q 0.65436,-0.2013402 1.61073,-0.4026803 1.0067,-0.2516745 2.16441,-0.4026775 1.1577,-0.201343 2.41608,-0.3020145 1.30871,-0.151003 2.61742,-0.151003 z"
       style="font-style:normal;font-variant:normal;font-weight:bold;font-stretch:normal;font-size:medium;line-height:125%;font-family:Ubuntu;-inkscape-font-specification:'Ubuntu, Medium';text-align:start;letter-spacing:0px;word-spacing:0px;writing-mode:lr-tb;text-anchor:start;fill:#000000;fill-opacity:1;stroke:none;stroke-width:0.28222224px;stroke-linecap:butt;stroke-linejoin:miter;stroke-opacity:1"
       id="path18549"
       inkscape:connector-curvature="0" />
    <path
       d="m -264.47027,-0.62629897 7.49992,-1.20804093 v 7.8019347 h 9.00998 v 6.2415502 h -9.00998 v 9.311988 q 0,2.365747 0.80536,3.775131 0.8557,1.409382 3.37245,1.409382 1.20805,0 2.46642,-0.201341 1.30871,-0.251674 2.36575,-0.654354 l 1.05704,5.838867 q -1.35905,0.553686 -3.02011,0.956367 -1.66105,0.40268 -4.07714,0.40268 -3.07044,0 -5.08384,-0.805361 -2.0134,-0.855698 -3.22144,-2.315413 -1.20804,-1.510053 -1.7114,-3.624126 -0.45301,-2.114073 -0.45301,-4.681161 z"
       style="font-style:normal;font-variant:normal;font-weight:bold;font-stretch:normal;font-size:medium;line-height:125%;font-family:Ubuntu;-inkscape-font-specification:'Ubuntu, Medium';text-align:start;letter-spacing:0px;word-spacing:0px;writing-mode:lr-tb;text-anchor:start;fill:#000000;fill-opacity:1;stroke:none;stroke-width:0.28222224px;stroke-linecap:butt;stroke-linejoin:miter;stroke-opacity:1"
       id="path18551"
       inkscape:connector-curvature="0" />
    <path
       d="m -244.14356,19.40706 q 0,-3.523454 1.05704,-6.140879 1.10737,-2.66776 2.8691,-4.4294839 1.76172,-1.7617271 4.0268,-2.6677593 2.31542,-0.9060321 4.7315,-0.9060321 5.63753,0 8.90931,3.4731199 3.27178,3.4227824 3.27178,10.1173484 0,0.654357 -0.0503,1.459718 -0.0503,0.755026 -0.10067,1.359047 h -17.01325 q 0.25167,2.315413 2.1644,3.67446 1.91274,1.359047 5.13419,1.359047 2.06373,0 4.0268,-0.352346 2.0134,-0.402681 3.27178,-0.956367 l 1.0067,6.090545 q -0.60402,0.302009 -1.61072,0.60402 -1.0067,0.302009 -2.26508,0.503349 -1.20804,0.251678 -2.61743,0.402684 -1.40938,0.151003 -2.81876,0.151003 -3.57379,0 -6.24155,-1.057036 -2.61742,-1.057038 -4.37915,-2.869099 -1.71139,-1.862399 -2.56709,-4.379152 -0.80536,-2.516753 -0.80536,-5.436187 z m 17.61728,-2.8691 q -0.0503,-0.956366 -0.35235,-1.862395 -0.25167,-0.906033 -0.8557,-1.610725 -0.55368,-0.704692 -1.45971,-1.157703 -0.8557,-0.453015 -2.16441,-0.453015 -1.25837,0 -2.16441,0.453015 -0.90603,0.40268 -1.51005,1.107372 -0.60402,0.704689 -0.95637,1.661056 -0.30201,0.906029 -0.45301,1.862395 z"
       style="font-style:normal;font-variant:normal;font-weight:bold;font-stretch:normal;font-size:medium;line-height:125%;font-family:Ubuntu;-inkscape-font-specification:'Ubuntu, Medium';text-align:start;letter-spacing:0px;word-spacing:0px;writing-mode:lr-tb;text-anchor:start;fill:#000000;fill-opacity:1;stroke:none;stroke-width:0.28222224px;stroke-linecap:butt;stroke-linejoin:miter;stroke-opacity:1"
       id="path18553"
       inkscape:connector-curvature="0" />
    <path
       d="m -205.79138,27.057992 q 2.06374,0 2.91944,-0.402681 0.85569,-0.40268 0.85569,-1.560387 0,-0.906032 -1.10737,-1.560387 -1.10738,-0.704692 -3.37245,-1.560387 -1.76173,-0.654357 -3.22145,-1.359049 -1.40938,-0.704689 -2.41608,-1.661056 -1.0067,-1.006701 -1.56039,-2.365747 -0.55368,-1.359047 -0.55368,-3.27178 0,-3.7247974 2.76842,-5.8892049 2.76843,-2.1644074 7.6006,-2.1644074 2.41608,0 4.63083,0.4530175 2.21474,0.4026775 3.52345,0.9060265 l -1.30871,5.8388733 q -1.30871,-0.453018 -2.8691,-0.805364 -1.51005,-0.352346 -3.42278,-0.352346 -3.52346,0 -3.52346,1.963068 0,0.453017 0.15101,0.805363 0.151,0.352343 0.60402,0.704689 0.45301,0.302012 1.20804,0.704692 0.80536,0.352346 2.01341,0.805361 2.46641,0.906032 4.07713,1.812061 1.61073,0.855698 2.51676,1.912733 0.95636,1.006704 1.30871,2.265079 0.40268,1.258378 0.40268,2.919434 0,3.926134 -2.96977,5.939539 -2.91943,2.013402 -8.30529,2.013402 -3.52345,0 -5.8892,-0.604021 -2.31541,-0.60402 -3.22145,-1.006701 l 1.25838,-6.090542 q 1.91274,0.755024 3.92614,1.208041 2.0134,0.402681 3.97647,0.402681 z"
       style="font-style:normal;font-variant:normal;font-weight:bold;font-stretch:normal;font-size:medium;line-height:125%;font-family:Ubuntu;-inkscape-font-specification:'Ubuntu, Medium';text-align:start;letter-spacing:0px;word-spacing:0px;writing-mode:lr-tb;text-anchor:start;fill:#000000;fill-opacity:1;stroke:none;stroke-width:0.28222224px;stroke-linecap:butt;stroke-linejoin:miter;stroke-opacity:1"
       id="path18555"
       inkscape:connector-curvature="0" />
    <g
       id="g862">
      <circle
         r="89.958336"
         cy="185.54225"
         cx="105.74225"
         id="path858"
         style="fill:#ffffff;fill-opacity:1;fill-rule:evenodd;stroke:none;stroke-width:1.27272725;stroke-linejoin:miter;stroke-miterlimit:4;stroke-dasharray:none;stroke-opacity:1" />
      <path
         id="path4291"
         style="fill:#000000;fill-opacity:1;stroke-width:0.84199619"
         d="m 67.957915,114.09627 v 15.71202 c -5.77998,1.76062 -9.10758,3.58834 -8.56724,4.76218 1.89911,-0.55334 4.9385,-0.79888 8.56724,-0.56557 v 81.63599 c -8.82901,17.00364 3.79552,43.08559 3.79552,43.08559 0,0 -9.37266,-27.83034 11.5001,-40.99739 19.204245,-12.11454 85.410925,-6.42238 85.183345,-43.78873 -0.32263,-52.92743 -61.36976,-52.60761 -91.992355,-46.26061 v -13.58348 z m 8.48661,21.21577 c 15.31686,3.6834 33.303555,15.42193 27.328355,43.70797 -2.97396,14.07807 -18.357985,21.43496 -27.328355,27.51783 z m 29.297735,142.83438 c -51.143935,0 -92.604176,-41.46021 -92.604176,-92.60417 0,-51.14353 41.460241,-92.604163 92.604176,-92.604163 51.14392,0 92.60416,41.460633 92.60416,92.604163 0,51.14444 -41.46024,92.60417 -92.60416,92.60417 z"
         inkscape:connector-curvature="0" />
    </g>
  </g>
</svg>
