<?xml version="1.0" encoding="UTF-8" standalone="no"?>
<svg
   xmlns:dc="http://purl.org/dc/elements/1.1/"
   xmlns:cc="http://creativecommons.org/ns#"
   xmlns:rdf="http://www.w3.org/1999/02/22-rdf-syntax-ns#"
   xmlns:svg="http://www.w3.org/2000/svg"
   xmlns="http://www.w3.org/2000/svg"
   xmlns:sodipodi="http://sodipodi.sourceforge.net/DTD/sodipodi-0.dtd"
   xmlns:inkscape="http://www.inkscape.org/namespaces/inkscape"
   enable-background="new 0 0 512 512"
   id="Layer_1"
   version="1.1"
   viewBox="0 0 512 512"
   xml:space="preserve"
   sodipodi:docname="telegram.svg"
   inkscape:version="0.92.3 (2405546, 2018-03-11)"><metadata
     id="metadata3958"><rdf:RDF><cc:Work
         rdf:about=""><dc:format>image/svg+xml</dc:format><dc:type
           rdf:resource="http://purl.org/dc/dcmitype/StillImage" /><dc:title></dc:title></cc:Work></rdf:RDF></metadata><defs
     id="defs3956" /><sodipodi:namedview
     pagecolor="#ffffff"
     bordercolor="#666666"
     borderopacity="1"
     objecttolerance="10"
     gridtolerance="10"
     guidetolerance="10"
     inkscape:pageopacity="0"
     inkscape:pageshadow="2"
     inkscape:window-width="1849"
     inkscape:window-height="1027"
     id="namedview3954"
     showgrid="false"
     inkscape:pagecheckerboard="true"
     inkscape:zoom="0.4609375"
     inkscape:cx="256"
     inkscape:cy="256"
     inkscape:window-x="71"
     inkscape:window-y="27"
     inkscape:window-maximized="1"
     inkscape:current-layer="Layer_1" /><path
     style="fill:#ffffff"
     clip-path="none"
     d="M 256 0 A 256 256 0 0 0 0 256 A 256 256 0 0 0 256 512 A 256 256 0 0 0 512 256 A 256 256 0 0 0 256 0 z M 382.34766 121.78906 C 391.0901 121.79745 396.89453 128.46289 395.80078 139.40039 C 394.90078 148.30039 392.60078 157.10039 390.80078 165.90039 C 376.10078 235.30039 361.39961 304.79922 346.59961 374.19922 C 343.09961 390.69922 331.5 395 318 385 C 295.3 368.3 272.60039 351.49922 249.90039 334.69922 C 248.80039 333.79922 247.70039 332.99961 246.40039 332.09961 C 234.10039 343.99961 222.00039 355.79961 209.90039 367.59961 C 205.70039 371.69961 201.00039 373.99922 194.90039 373.69922 C 190.80039 373.49922 188.49922 371.70078 187.19922 367.80078 C 177.99922 339.20078 168.60039 310.60039 159.40039 281.90039 C 158.50039 279.10039 157.20039 277.80039 154.40039 276.90039 C 132.70039 270.30039 110.90078 263.49961 89.300781 256.59961 C 86.000781 255.49961 82.599219 254.19922 79.699219 252.19922 C 75.199219 249.19922 74.599609 244.29922 78.599609 240.69922 C 82.299609 237.39922 86.700781 234.60078 91.300781 232.80078 C 117.90078 222.30078 144.60078 212.10078 171.30078 201.80078 C 239.00078 175.70078 306.70039 149.50039 374.40039 123.40039 C 377.22227 122.30664 379.89977 121.78671 382.34766 121.78906 z M 334.84961 170.55469 C 334.31836 170.5375 333.80078 170.57422 333.30078 170.69922 C 330.60078 171.39922 328.09922 173 325.69922 174.5 C 274.79922 206.6 223.80039 238.70078 172.90039 270.80078 C 170.00039 272.60078 169.49961 274.10078 170.59961 277.30078 C 174.39961 288.10078 177.80078 299.00039 181.30078 309.90039 C 186.00078 324.30039 190.70039 338.79922 195.40039 353.19922 C 195.70039 353.09922 195.89922 353.1 196.19922 353 C 196.29922 352.3 196.49961 351.69961 196.59961 351.09961 C 198.09961 335.39961 199.60039 319.60039 200.90039 303.90039 C 201.20039 300.40039 202.4 297.9 205 295.5 C 225.9 276.8 246.79961 257.89961 267.59961 239.09961 C 290.69961 218.29961 313.80078 197.49961 336.80078 176.59961 C 338.20078 175.29961 338.80078 173.10078 339.80078 171.30078 C 338.15078 171.15078 336.44336 170.60625 334.84961 170.55469 z "
     id="ellipse" /></svg>